<?xml version="1.0" encoding="utf-8"?>
<svg xmlns="http://www.w3.org/2000/svg" xmlns:svg="http://www.w3.org/2000/svg" xmlns:xlink="http://www.w3.org/1999/xlink"  xmlns:rdf="http://www.w3.org/1999/02/22-rdf-syntax-ns#" xmlns:cc="http://creativecommons.org/ns#" xmlns:dc="http://purl.org/dc/elements/1.1/"  width="256px" height = "256px" viewBox="0 0 256 256"><metadata id="license"><rdf:RDF><cc:Work rdf:about=""><dc:format>image/svg+xml</dc:format><dc:title>red stripes lines yellow streaks 256x256 #e7f23f #ee3401 diagonal 240° 244px</dc:title><dc:creator><cc:Agent><dc:title>https://xmple.com</dc:title></cc:Agent></dc:creator><dc:rights><cc:Agent><dc:title>Attribution-NonCommercial-NoDerivatives 4.0 International (CC BY-NC-ND 4.0)</dc:title></cc:Agent></dc:rights><dc:publisher><cc:Agent><dc:title>https://xmple.com</dc:title></cc:Agent></dc:publisher><dc:identifier>https://xmple.com/wallpaper/red-stripes-lines-yellow-streaks-256x256-c2-e7f23f-ee3401-l2-244-244-a-240-f-1-image/</dc:identifier><dc:source>https://xmple.com/wallpaper/red-stripes-lines-yellow-streaks-256x256-c2-e7f23f-ee3401-l2-244-244-a-240-f-1-image/</dc:source><dc:subject><rdf:Bag><rdf:li>red stripes lines yellow streaks 256x256 #e7f23f #ee3401 diagonal 240° 244px</rdf:li></rdf:Bag></dc:subject><dc:description>red stripes lines yellow streaks 256x256 #e7f23f #ee3401 diagonal 240° 244px</dc:description><cc:license rdf:resource="http://creativecommons.org/licenses/by-nc-nd/4.0/" /></cc:Work><cc:License rdf:about="http://creativecommons.org/licenses/by-nc-nd/4.0/"><cc:permits rdf:resource="http://creativecommons.org/ns#Reproduction" /><cc:permits rdf:resource="http://creativecommons.org/ns#Distribution" /><cc:requires rdf:resource="http://creativecommons.org/ns#Notice" /><cc:requires rdf:resource="http://creativecommons.org/ns#Attribution" /><cc:prohibits rdf:resource="http://creativecommons.org/ns#CommercialUse" /></cc:License></rdf:RDF></metadata><title id="svgtitle">red stripes lines yellow streaks 256x256 #e7f23f #ee3401 diagonal 240° 244px</title><desc>red stripes lines yellow streaks 256x256 #e7f23f #ee3401 diagonal 240° 244px</desc><style type="text/css" ><![CDATA[.x{font:20px verdana;fill:#fff;stroke:#555;stroke-width:20px;opacity:0.35;}.o{stroke:none;opacity:0.01;}]]></style><defs><pattern id="p1" patternUnits="userSpaceOnUse" x="0" y="0" width="488" height="488"  patternTransform="translate(128,128) rotate(120 0 0)"><path fill="#e7f23f" d="M0 0H488v246H0z"/><path fill="#ee3401" d="M0 244H488v246H0z"/></pattern></defs><rect width="256" height="256" x="0" y="0" fill="url(#p1)" /><path class="x o" d="M5 5h2v1H6v1h1v1H5zM4 3h4v1h1v5H8v1H4V9H3V4h1v5h4V4H4zm7 1h1v2h1V4h1v2h-1v1h1v2h-1V7h-1v2h-1V7h1V6h-1zm4 0h5v5h-1V5h-1v4h-1V5h-1v4h-1zm6 0h3l-1 1h-1v3h1V5l1-1v5h-2v2h-1zm4-2h1v6h1v1h-2zm3 2h3l-1 1h-1v1h1V5l1-1v3h-2v1h2v1h-3V4zm4 4h1v1h-1zm2-4h3v1h-2v3h2v1h-3zm4 0h3v5h-3l1-1h1V5h-1v3l-1 1zm4 0h5v5h-1V5h-1v4h-1V5h-1v4h-1z"/><text x="4" y="250" class="x o">xmple.com</text><a xlink:href="https://xmple.com"><text text-anchor="end" x="246" y="22" class="x o">xmple.com</text></a><a xlink:href="https://xmple.com"><g transform="translate(211,249) scale(0.00722488832)" id="a" class="x"><path d="m937 367l-186-223c-5-5-7-12-7-20c0-8 3-16 9-21c6-6 13-9 22-9c8 0 15 3 21 9l181 216l180-216c7-6 14-9 22-9c9 0 16 3 22 9c6 6 9 13 9 22c0 8-3 15-7 20l-187 223l188 225c4 6 6 12 6 19c0 9-3 16-9 22c-6 6-13 9-22 9c-8 0-15-3-20-9l-182-217l-182 217c-5 6-12 9-20 9c-9 0-16-3-22-9c-6-6-9-13-9-21c0-7 2-13 6-18zm412 244c0 9-3 16-9 22c-6 6-13 9-22 9c-8 0-15-3-21-9c-6-6-9-13-9-21v-486c0-8 3-16 9-21c6-6 13-9 21-9c9 0 16 3 22 9c6 6 9 13 9 22v33c49-42 100-63 152-63c58 0 108 21 150 63c10 10 21 23 32 38c11-15 22-28 32-38c42-42 92-62 150-62c59 0 109 21 151 63c41 41 62 92 62 150v304c0 9-3 16-9 22c-6 6-13 9-22 9c-8 0-15-3-21-9c-6-6-9-13-9-21v-304c0-42-15-78-45-107c-30-30-65-45-107-45c-41 0-77 15-107 45c-30 30-45 65-45 107v 304c0 9-3 16-9 22c-6 6-13 9-21 9c-9 0-16-3-22-9c-6-6-9-13-9-21v-304c0-42-14-78-44-107c-30-30-66-45-107-45c-42 0-78 15-108 45c-29 30-44 65-44 107zm861-243c0 59 21 109 63 150c41 42 91 63 150 63c59 0 109-21 150-62c42-41 62-91 62-150c0-59-20-109-62-150c-41-42-91-62-150-62c-59 0-109 21-150 63c-42 42-63 92-63 150zm0 478c0 9-3 16-9 22c-6 5-13 8-21 8c-9 0-16-3-22-8c-6-6-8-13-8-22v-477c0-75 26-140 80-193c53-53 117-80 193-80c75 0 140 27 193 80c54 53 80 118 80 193c0 76-26 140-80 193c-53 53-118 80-193 80c-76 0-140-27-193-80l-20-19zm568-956c0-8 3-16 9-21c6-6 13-9 21-9c9 0 16 3 22 9c6 6 9 13 9 21v691h50c9 0 16 3 22 9c6 6 9 13 9 22c0 9-3 16-9 22c-6 6-13 9-22 9h-81c-8 0-15-3-21-9c-6-6-9-13-9-21zm716 448c-9-48-30-89-61-120c-42-42-92-62-151-62c-58 0-108 21-150 63c-31 31-52 71-62 120zm-56 186c9 0 16 3 22 9c5 6 8 13 8 22c0 8-2 15-7 21c-51 44-111 66-179 66c-75 0-140-27-193-80c-53-53-80-118-80-193c0-75 27-140 80-193c53-53 118-80 193-80c76 0 140 27 194 80c53 53 80 118 80 193c0 9-3 16-9 22c-6 6-13 9-22 9h-455c10 49 31 89 62 120c42 42 92 63 150 63c27 0 52-4 75-13c22-9 43-21 62-37c6-4 12-7 19-7zm307 67c0 14-5 26-15 36c-9 10-21 15-36 15c-14 0-26-5-36-15c-9-10-14-22-14-36c0-14 5-26 14-36c10-10 22-15 36-15c15 0 27 5 36 15c10 9 15 21 15 36zm515-68c8 0 15 3 21 9c6 6 9 13 9 22c0 9-3 16-9 22c-25 21-52 37-83 49c-30 11-62 17-95 17c-76 0-140-27-194-80c-53-53-80-118-80-193c0-75 27-140 80-193c54-53 118-80 194-80c33 0 65 6 96 17c30 11 57 28 82 49c3 3 5 7 7 11c3 4 4 9 4 13c0 8-3 16-9 21c-6 6-13 9-22 9c-7 0-14-2-19-7c-40-35-86-52-139-52c-59 0-109 21-151 63c-41 41-62 91-62 150c0 59 21 109 62 150c42 42 92 63 151 63c25 0 50-5 74-14c24-9 46-22 65-38c5-4 11-6 18-6zm663-155c0 76-27 140-80 193c-54 53-118 80-193 80c-76 0-140-27-194-80c-53-53-80-118-80-193c0-75 27-140 80-193c54-53 118-80 194-80c75 0 139 27 193 80c53 53 80 118 80 193zm-273-213c-59 0-109 21-151 63c-42 42-62 92-62 150c0 59 20 109 62 150c42 42 92 63 151 63c58 0 108-21 150-62c41-41 62-91 62-150c0-59-21-109-62-150c-42-42-92-62-150-62zm410 456c0 9-3 16-9 22c-6 6-13 9-22 9c-8 0-15-3-21-9c-6-6-9-13-9-21v-486c0-8 3-16 9-21c6-6 13-9 21-9c9 0 16 3 22 9c6 6 9 13 9 22v33c49-42 100-63 152-63c58 0 108 21 150 63c10 10 21 23 32 38c11-15 21-28 32-38c42-42 92-62 150-62c59 0 109 21 151 63c41 41 62 92 62 150v304c0 9-3 16-9 22c-6 6-13 9-22 9c-8 0-15-3-21-9c-6-6-9-13-9-21v-304c0-42-15-78-45-107c-30-30-65-45-107-45c-41 0-77 15-107 45c-30 30-45 65-45 107v 304c0 9-3 16-9 22c-6 6-13 9-21 9c-9 0-16-3-22-9c-6-6-9-13-9-21v-304c0-42-14-78-44-107c-30-30-66-45-107-45c-42 0-78 15-108 45c-30 30-44 65-44 107z"/></g></a></svg>	